<?xml version="1.0" encoding="UTF-8"?>
<svg width="40" height="60" enable-background="new 0 0 18121.891 17875.275" viewBox="0 0 18121.891 17875.275" xmlns="http://www.w3.org/2000/svg" xmlns:xlink="http://www.w3.org/1999/xlink">
 <defs>
  <linearGradient id="c" x1="9020" x2="9011.5" y1="8851.4" y2="8842.9" gradientUnits="userSpaceOnUse">
   <stop stop-color="#c6c7c8" offset="0"/>
   <stop stop-color="#ededee" offset="1"/>
  </linearGradient>
  <linearGradient id="b" x1="9005.9" x2="8989" y1="8837.4" y2="8820.5" gradientUnits="userSpaceOnUse">
   <stop stop-color="#a7a8aa" offset="0"/>
   <stop stop-color="#fff" offset=".9944"/>
  </linearGradient>
  <linearGradient id="d" x1="9037.5" x2="8966.8" y1="8871.8" y2="8817" gradientTransform="matrix(1,8e-4,-8e-4,1,7.1357,-7.2051)" gradientUnits="userSpaceOnUse">
   <stop stop-color="#fff" offset="0"/>
   <stop offset="1"/>
  </linearGradient>
  <radialGradient id="a" cx="9008.3" cy="8796" r="35.928" gradientTransform="matrix(1,8e-4,-8e-4,1,7.1357,-7.2051)" gradientUnits="userSpaceOnUse">
   <stop stop-color="#fff" offset="0"/>
   <stop offset="1"/>
  </radialGradient>
 </defs>
 <g transform="matrix(221.01 0 0 230.62 -1.9804e6 -2.0233e6)">
  <path d="m9001.8 8808.2c-15.501-0.013-28.36 22.838-30.648 52.672l61.216 0.048c-2.242-29.837-15.064-52.708-30.568-52.72z" fill="url(#d)"/>
  <path d="m9018.2 8790a17.232 17.232 0 1 0 -34.464 0 17.232 17.232 0 1 0 34.464 0" fill="url(#a)"/>
  <path d="m9024.01,8839.611 .183.424c.32.74-.02,1.602-.763,1.921l-2.068.897c.224,1.048.258,2.108.084,3.131l2.317.917c.75.298 1.115,1.147.821,1.899l-.17.43c-.297.75-1.146,1.118-1.897.82l-2.304-.912c-.54.832-1.226,1.574-2.048,2.18l.723,1.669c.321.743-.021,1.603-.762,1.924l-.423.185c-.741.318-1.603-.021-1.923-.764l-.691-1.595c-1.133.262-2.278.258-3.379.055l-.842,2.131c-.299.753-1.148,1.118-1.9.822l-.429-.169c-.75-.299-1.118-1.146-.82-1.899l.856-2.165c-.854-.572-1.621-1.286-2.225-2.162l-2.142.926c-.741.32-1.603-.021-1.923-.762l-.183-.423c-.321-.739.02-1.603.762-1.921l2.169-.939c-.201-.999-.189-2.008-.028-2.982l-2.019-.797c-.753-.299-1.119-1.146-.822-1.9l.17-.429c.297-.751 1.147-1.118 1.898-.821l1.984.786c.604-.938 1.387-1.771 2.35-2.419l-.809-1.869c-.321-.74.021-1.604.762-1.922l.422-.184c.741-.322 1.604.02 1.924.762l.839,1.938c.96-.178 1.925-.16 2.858-.006l.865-2.184c.297-.752 1.147-1.117 1.899-.822l.427.17c.752.297 1.12,1.148.82,1.897l-.851,2.152c.873.562 1.658,1.274 2.282,2.149l2.079-.9c.745-.32 1.605.021 1.927.761zm-11.82,2.618c-1.309.568-1.91,2.088-1.345,3.398 .568,1.307 2.088,1.91 3.396,1.342s1.912-2.085 1.345-3.396c-.565-1.308-2.085-1.911-3.396-1.344z" fill="url(#c)"/>
  <path d="m9015.234,8834.127-.809,2.039c-.893-.131-1.762-.128-2.589.006l-.778-1.8c-.178-.41-.505-.728-.921-.892-.414-.164-.869-.156-1.278.021l-.422.184c-.409.176-.727.502-.891.918-.078.199-.119.408-.119.615 0,.227.048.451.139.664 0,0 .644,1.484.748,1.727-.841.592-1.566,1.34-2.163,2.227l-1.842-.729c-.414-.164-.868-.157-1.279.02s-.727.503-.891.919l-.169.429c-.079.201-.117.408-.117.612 0,.667.401,1.298 1.056,1.559l1.876.74c-.064.442-.11.882-.11,1.31 0,.48.056.945.137,1.403l-2.029.879c-.409.177-.727.504-.891.919-.079.199-.119.406-.119.614 0,.226.047.45.139.664l.184.422c.365.845 1.352,1.236 2.198.871l1.998-.866c.54.745 1.221,1.409 2.034,1.975l-.801,2.025c-.079.2-.117.408-.117.612 0,.665.4,1.296 1.055,1.556l.43.17c.856.338 1.831-.084 2.171-.939 0,0 .686-1.734.784-1.986 1.066.176 2.112.166 3.116-.042 .105.245.626,1.443.626,1.443 .364.845 1.351,1.236 2.196.871l.424-.183c.63-.275 1.007-.893 1.007-1.539 0-.221-.044-.445-.137-.66l-.662-1.529c.72-.554 1.344-1.219 1.863-1.984l2.159.854c.415.165.868.158 1.278-.019s.726-.504.89-.919l.171-.429c.079-.201.116-.408.116-.612 0-.666-.4-1.299-1.055-1.559l-2.174-.859c.058-.394.099-.789.099-1.191 0-.551-.071-1.111-.18-1.672l1.928-.836c.409-.177.726-.502.892-.917 .078-.2.118-.407.118-.617 0-.224-.046-.45-.138-.663l-.185-.423c-.366-.844-1.353-1.233-2.197-.87 0,0-1.698.735-1.94.84-.563-.754-1.263-1.414-2.086-1.965l.793-2.008c.08-.199.119-.408.119-.616 0-.225-.045-.448-.137-.66-.178-.411-.504-.728-.92-.892l-.427-.17c-.858-.34-1.833.082-2.171.938zm-.476,2.336 .864-2.183c.255-.642.985-.958 1.629-.705l.427.17c.313.124.558.36.69.669s.137.647.014.957l-.914,2.313 .145.093c.895.575 1.644,1.279 2.225,2.095l.098.139 2.233-.969c.635-.272 1.376.021 1.65.654l.183.422c.069.16.104.328.104.497 0,.157-.03.313-.089.464-.124.311-.361.555-.668.687l-2.226.965 .035.167c.127.592.189,1.18.189,1.76 0,.438-.035.869-.107,1.294l-.027.167 2.475.979c.49.194.79.67.79,1.17 0,.152-.027.309-.087.459l-.169.428c-.125.313-.361.557-.669.689s-.647.139-.959.015l-2.463-.973-.093.143c-.541.833-1.212,1.548-1.995,2.124l-.135.1 .789,1.82c.273.634-.021,1.375-.654,1.649l-.422.183c-.635.273-1.374-.02-1.648-.652l-.761-1.754-.169.039c-1.055.242-2.163.261-3.293.053l-.17-.031-.905,2.289c-.255.643-.986.959-1.629.705l-.429-.17c-.642-.254-.957-.984-.703-1.627l.918-2.321-.14-.094c-.886-.595-1.615-1.304-2.169-2.108l-.097-.143-2.3.996c-.634.273-1.374-.019-1.648-.652l-.184-.423c-.133-.308-.137-.647-.015-.959s.361-.556.669-.688l2.323-1.006-.033-.166c-.185-.919-.193-1.896-.027-2.906l.028-.168-2.175-.857c-.644-.256-.959-.986-.706-1.63l.17-.429c.123-.311.36-.556.669-.689s.647-.137.958-.014l2.146.85 .092-.145c.617-.959 1.389-1.752 2.292-2.359l.144-.097-.878-2.028c-.133-.307-.139-.648-.015-.96s.36-.557.668-.688l.422-.184c.308-.133.647-.139.96-.016s.557.361.689.668l.904,2.09 .163-.029c.883-.163 1.82-.164 2.788-.006l.165.028 .063-.161z" fill="#707173"/>
  <path d="m9012.108,8842.038c-1.412.611-2.064,2.258-1.454,3.671s2.26,2.063 3.672,1.451 2.063-2.258 1.452-3.669c-.296-.685-.841-1.214-1.534-1.487-.692-.275-1.452-.263-2.136.034zm1.983.355c.589.232 1.053.682 1.305,1.264 .52,1.201-.035,2.601-1.236,3.121s-2.601-.033-3.121-1.234c-.133-.306-.195-.625-.195-.938 0-.919.536-1.796 1.431-2.184 .581-.253 1.226-.264 1.816-.029z" fill="#707173"/>
  <path d="m9016.686,8844.44c0,1.997-1.619,3.614-3.616,3.614-.86,0-1.639-.311-2.259-.813 .663.822 1.664,1.355 2.801,1.355 1.997,0 3.616-1.618 3.616-3.615 0-1.137-.536-2.139-1.356-2.801 .5.622.814,1.402.814,2.26z" fill="#fff"/>
  <path d="m9006.8 8845.6c0-4.006 3.299-7.521 7.236-7.521 1.695 0 3.231 0.894 4.454 1.899-1.307-1.646-3.281-2.72-5.524-2.72-3.571 0-7.13 3.602-7.13 7.251 0 2.279 1.056 4.29 2.676 5.62-0.989-1.244-1.712-2.805-1.712-4.529z" fill="#fff"/>
  <path d="m9005.53,8841.944-.196.468-2.247-.943-.296-.674 2.739,1.149z" fill="#fff"/>
  <path d="m9009.921,8837.354-.469.192-.923-2.254 .268-.688 1.124,2.75z" fill="#fff"/>
  <path d="m9015.7 8837-0.468-0.196 0.944-2.246 0.673-0.297-1.149 2.739z" fill="#fff"/>
  <path d="m9020.268,8841.102-.191-.467 2.254-.924 .688.268-2.751,1.123z" fill="#fff"/>
  <path d="m9021.309,8847.229 .201-.467 2.233.972 .289.68-2.723-1.185z" fill="#87898a"/>
  <path d="m9017.065,8851.604 .472-.187 .892,2.267-.277.683-1.087-2.763z" fill="#9c9d9f"/>
  <path d="m9010.584,8852.436 .466.201-.972,2.232-.679.289 1.185-2.722z" fill="#b1b2b4"/>
  <path d="m9005.83,8848.396 .185.469-2.266.895-.685-.279 2.766-1.085z" fill="#c6c7c8"/>
  <path d="m9009.168,8828.501v.46c0,.809-.654,1.464-1.463,1.464h-2.254c-.212,1.05-.602,2.038-1.168,2.906l1.763,1.763c.571.57.569,1.496-.001,2.07l-.325.324c-.571.572-1.496.572-2.068,0l-1.752-1.751c-.825.548-1.749.959-2.745,1.186v1.819c0,.809-.654,1.462-1.463,1.464h-.461c-.808,0-1.462-.655-1.462-1.464v-1.738c-1.144-.211-2.194-.666-3.123-1.29l-1.619,1.62c-.573.57-1.498.57-2.07,0l-.326-.326c-.571-.57-.571-1.496.001-2.069l1.646-1.646c-.557-.865-.977-1.826-1.185-2.868h-2.332c-.808,0-1.462-.655-1.462-1.464v-.46c0-.807.654-1.462 1.462-1.462h2.363c.214-.998.623-1.917 1.158-2.746l-1.534-1.537c-.573-.572-.572-1.498 0-2.068l.323-.325c.572-.571 1.499-.571 2.07,0l1.509,1.509c.927-.621 1.977-1.074 3.118-1.285v-2.039c0-.808.654-1.461 1.462-1.461h.461c.807,0 1.463.653 1.463,1.461v2.113c.952.219 1.83.617 2.627,1.129l1.659-1.658c.572-.574 1.497-.574 2.069,0l.325.325c.571.571.571,1.496 0,2.067l-1.637,1.635c.579.864 1.018,1.83 1.242,2.879h2.265c.81.001 1.463.656 1.464,1.463zm-11.885-2.292c-1.428,0-2.583,1.155-2.583,2.582s1.155,2.584 2.583,2.584 2.583-1.157 2.583-2.584-1.157-2.582-2.583-2.582z" fill="url(#b)"/>
  <path d="m8997.23,8816.877c-.921,0-1.671.75-1.671,1.67v1.885c-1.005.208-1.969.604-2.87,1.182l-1.4-1.398c-.652-.652-1.713-.652-2.365,0l-.324.325c-.315.315-.489.735-.489,1.181v.001c0,.446.174.866.49,1.182l1.426,1.429c-.497.8-.851,1.639-1.055,2.498h-2.211c-.922,0-1.672.75-1.672,1.671v.46c0,.922.75,1.672 1.672,1.672h2.18c.199.9.562,1.779 1.08,2.621l-1.537,1.537c-.325.326-.489.755-.489,1.184s.163.855.488,1.182l.326.325c.651.65 1.713.65 2.366,0l1.509-1.511c.904.582 1.868.979 2.876,1.188v1.584c0,.923.75,1.672 1.671,1.672h.461c.922-.001 1.672-.752 1.672-1.672v-1.67c.877-.219 1.715-.58 2.498-1.078l1.643,1.641c.315.316.735.491 1.182.491s.865-.175 1.183-.491l.324-.323c.326-.327.489-.755.489-1.185s-.162-.855-.487-1.181l-1.656-1.656c.495-.797.854-1.688 1.068-2.657h2.099c.922,0 1.672-.75 1.672-1.672v-.46c-.001-.92-.75-1.671-1.671-1.673h-2.115c-.216-.913-.597-1.796-1.135-2.632l1.526-1.525c.316-.315.49-.735.49-1.182s-.174-.866-.49-1.181l-.325-.326c-.316-.316-.736-.49-1.182-.49s-.867.174-1.183.49l-1.551,1.551c-.768-.476-1.565-.818-2.379-1.023v-1.963c0-.92-.75-1.67-1.672-1.67h-.462v-.003zm-4.463,5.167c.948-.634 1.971-1.056 3.039-1.253l.171-.031v-2.213c0-.689.563-1.252 1.254-1.252h.461c.691,0 1.254.563 1.254,1.252v2.28l.163.036c.875.201 1.736.571 2.559,1.101l.142.091 1.779-1.776c.237-.239.553-.369.888-.369s.648.13.886.368l.325.326c.238.236.368.551.368.886 0,.335-.13.649-.368.887l-1.758,1.757 .097.143c.595.887 1.001,1.83 1.211,2.806l.035.165h2.434c.69.002 1.253.564 1.254,1.256v.459c0,.691-.562,1.255-1.254,1.255h-2.425l-.033.167c-.211,1.045-.594,1.998-1.139,2.834l-.093.141 1.883,1.885c.243.243.365.564.365.885s-.122.644-.367.89l-.324.323c-.237.238-.552.368-.887.368-.335,0-.649-.13-.886-.367l-1.874-1.872-.143.095c-.831.552-1.731.94-2.675,1.155l-.163.037v1.986c0,.691-.563,1.254-1.255,1.255h-.46c-.69,0-1.254-.563-1.254-1.255v-1.912l-.171-.031c-1.069-.197-2.094-.621-3.044-1.258l-.143-.096-1.74,1.741c-.49.488-1.286.488-1.775,0l-.326-.325c-.489-.489-.488-1.285.001-1.775l1.765-1.764-.09-.143c-.576-.894-.965-1.835-1.155-2.795l-.032-.169h-2.505c-.691,0-1.254-.563-1.254-1.255v-.46c0-.69.563-1.253 1.254-1.253h2.532l.035-.164c.197-.923.578-1.824 1.13-2.678l.091-.142-1.654-1.656c-.237-.237-.367-.552-.367-.887 0-.335.13-.649.367-.886l.325-.326c.489-.489 1.285-.489 1.773,0l1.631,1.629 .142-.096z" fill="#7c7d7f"/>
  <path d="m8994.491,8828.791c0,1.54 1.252,2.793 2.792,2.793 .745,0 1.446-.29 1.973-.818s.818-1.229.818-1.975c0-1.539-1.252-2.791-2.791-2.791s-2.792,1.252-2.792,2.791zm.418,0c0-1.309 1.064-2.374 2.374-2.374s2.373,1.065 2.373,2.374c0,.635-.246,1.23-.695,1.68s-1.045.696-1.678.696c-1.309,0-2.374-1.065-2.374-2.376z" fill="#929496"/>
  <path d="m9003.717,8834.19 .361-.355 1.705,1.742 .01.737-2.076-2.124z" fill="#9c9d9f"/>
  <path d="m8998.14,8836.646 .506.006-.028,2.435-.513.528 .035-2.969z" fill="#9c9d9f"/>
  <path d="m8991.8 8835 0.356 0.362-1.741 1.702-0.738 0.013 2.123-2.077z" fill="#b1b2b4"/>
  <path d="m8988.938,8829.445-.006.506-2.436-.026-.529-.514 2.971.034z" fill="#d9dadb"/>
  <path d="m9000.875,8828.631c0,1.997-1.618,3.616-3.615,3.616-.859,0-1.639-.312-2.26-.813 .664.821 1.665,1.355 2.803,1.355 1.996,0 3.615-1.617 3.615-3.615 0-1.136-.535-2.139-1.356-2.801 .501.621.813,1.398.813,2.258z" fill="#fff"/>
  <path d="m8990.9 8829.6c0-4.006 3.299-7.521 7.237-7.521 1.694 0 3.23 0.894 4.453 1.899-1.307-1.646-3.282-2.721-5.524-2.721-3.571 0-7.13 3.602-7.13 7.252 0 2.281 1.057 4.291 2.676 5.62-0.99-1.244-1.712-2.807-1.712-4.529z" fill="#fff"/>
  <path d="m8991.283,8823.473-.358.359-1.723-1.723-.018-.736 2.099,2.1z" fill="#fff"/>
  <path d="m8997.1 8820.9h-0.508v-2.437l0.508-0.534v2.971z" fill="#fff"/>
  <path d="m9002.53,8822.752-.359-.359 1.723-1.723 .737-.019-2.101,2.101z" fill="#fff"/>
  <path d="m9005.2 8828.3v-0.506l2.437-1e-3 0.534 0.509-2.971-2e-3z" fill="#fff"/>
 </g>
</svg>
