<?xml version="1.0" encoding="UTF-8"?>
<svg width="153px" height="51px" viewBox="0 0 153 51" version="1.1" xmlns="http://www.w3.org/2000/svg" xmlns:xlink="http://www.w3.org/1999/xlink">
    <!-- Generator: Sketch 52.1 (67048) - http://www.bohemiancoding.com/sketch -->
    <title>Group 18</title>
    <desc>Created with Sketch.</desc>
    <g id="Symbols" stroke="none" stroke-width="1" fill="none" fill-rule="evenodd">
        <g id="Componentes/Footer" transform="translate(-135.000000, -63.000000)">
            <g id="Footer" transform="translate(0.000000, -1.000000)">
                <g id="Group-18" transform="translate(135.000000, 64.000000)">
                    <path d="M70.9357098,16.1428366 C69.9608432,14.8585333 68.8329453,14.2763158 67.387649,14.2763158 C63.7035604,14.2763158 61.1842105,18.4488746 61.1842105,24.4879542 C61.1842105,28.8060674 62.5388216,34.6710526 67.5803552,34.6710526 C69.9098328,34.6710526 72.5510409,33.0956405 73.4210526,27.7557927 L71.091575,25.8892719 C70.6579862,29.1571103 69.4422369,31.0550253 67.8070683,31.0550253 C65.8403318,31.0550253 64.4857207,28.4007984 64.4857207,24.5478884 C64.4857207,20.4894899 65.8771727,17.8067229 67.9969406,17.8067229 C68.7649314,17.8067229 69.1985203,18.0407515 70.0316911,19.1195663 C70.3604251,19.5562295 70.7260001,20.6664383 70.9357098,21.5711587 L72.9336194,21.5711587 L72.9336194,14.5988186 L70.9357098,14.5988186 L70.9357098,16.1428366 Z" id="Fill-1" fill="#000000"></path>
                    <path d="M81.9835467,31.430006 L80.1716696,31.430006 L80.1716696,29.9433141 C80.1716696,27.0863053 80.8210985,24.6482469 83.2260613,24.6482469 L83.5789474,24.6482469 L83.5789474,20.3947368 L83.1459948,20.3947368 C81.6099026,20.3947368 80.4444891,21.7330505 79.8958848,24.1740183 L79.8543687,24.1740183 L79.8543687,20.6013027 L75.5811858,20.6013027 L75.5811858,23.8423493 L77.1558285,23.8423493 L77.1558285,31.430006 L75.4210526,31.430006 L75.4210526,34.6710526 L81.9835467,34.6710526 L81.9835467,31.430006" id="Fill-2" fill="#000000"></path>
                    <path d="M97.8552632,31.2234402 L96.3020393,31.2234402 L96.3020393,20.3947368 L92.1932017,20.3947368 L92.1932017,23.6357835 L93.0450729,23.6357835 L93.0450729,29.9724078 C92.4045682,30.6299272 91.8345191,30.9848712 91.3189128,30.9848712 C90.5759274,30.9848712 90.3421431,30.5397365 90.3421431,29.172329 L90.3421431,20.3947368 L85.6184211,20.3947368 L85.6184211,23.6357835 L87.0851768,23.6357835 L87.0851768,30.3040769 C87.0851768,33.0068887 88.2573004,34.6710526 90.1724094,34.6710526 C91.1299639,34.6710526 92.0651008,34.2259179 93.0450729,33.2745514 L93.0450729,34.4644868 L97.8552632,34.4644868 L97.8552632,31.2234402" id="Fill-3" fill="#000000"></path>
                    <polyline id="Fill-4" fill="#000000" points="98.8552632 34.6710526 107.013158 34.6710526 107.013158 29.3602395 105.249723 29.3602395 105.249723 31.7750506 102.079293 31.7750506 107.013158 23.3527328 107.013158 20.3947368 99.2653019 20.3947368 99.2653019 25.4989035 101.098416 25.4989035 101.098416 23.3527328 103.805208 23.3527328 98.8552632 31.7750506 98.8552632 34.6710526"></polyline>
                    <path d="M116.837,22.4447884 L116.837,17.731756 L118.392316,17.731756 C119.536262,17.731756 119.829293,19.2038441 119.829293,20.0441977 C119.829293,21.1254919 119.429193,22.4447884 118.065474,22.4447884 L116.837,22.4447884 Z M124.407895,31.2185507 L122.88639,31.2185507 L120.984509,25.059875 C122.351046,23.9756424 123.007547,22.3243181 123.007547,19.9824934 C123.007547,16.8855257 121.764985,14.2763158 119.482728,14.2763158 L112.171053,14.2763158 L112.171053,17.731756 L113.777085,17.731756 L113.777085,31.2185507 L112.171053,31.2185507 L112.171053,34.6710526 L118.307788,34.6710526 L118.307788,31.2185507 L116.837,31.2185507 L116.837,25.718054 L118.186631,25.718054 L120.829541,34.6710526 L124.407895,34.6710526 L124.407895,31.2185507 Z" id="Fill-5" fill="#000000"></path>
                    <path d="M132.463433,27.5187877 C132.463433,29.9141616 131.764119,31.2966507 130.534588,31.2966507 C129.345182,31.2966507 128.625806,29.9141616 128.625806,27.6062513 C128.625806,25.1544492 129.305058,23.7691388 130.534588,23.7691388 C131.764119,23.7691388 132.463433,25.1544492 132.463433,27.5187877 Z M135.644737,27.5187877 C135.644737,22.9311811 133.366235,20.3947368 130.534588,20.3947368 C127.909296,20.3947368 125.447368,22.7308612 125.447368,27.5187877 C125.447368,32.0499662 127.662817,34.6710526 130.534588,34.6710526 C133.569724,34.6710526 135.644737,31.8186109 135.644737,27.5187877 Z" id="Fill-6" fill="#000000"></path>
                    <path d="M139.94417,14.2763158 C138.912066,14.2763158 138.105945,15.3349959 138.105945,16.6936835 C138.105945,18.052371 138.912066,19.1427827 139.94417,19.1427827 C140.972901,19.1427827 141.802632,18.052371 141.802632,16.6936835 C141.802632,15.3349959 140.972901,14.2763158 139.94417,14.2763158 Z M136.692704,23.8880928 L138.328556,23.8880928 L138.328556,35.008561 C138.328556,36.7509119 137.704571,37.1316906 136.490331,37.1316906 L135.684211,37.1316906 L135.684211,40.7288953 C136.088957,40.7606268 136.402636,40.7894737 136.918688,40.7894737 C140.348916,40.7894737 141.762157,39.2259733 141.762157,35.0691394 L141.762157,20.6745515 L136.692704,20.6745515 L136.692704,23.8880928 Z" id="Fill-7" fill="#000000"></path>
                    <path d="M148.590908,29.3803678 L148.590908,30.5124605 C147.822006,31.5620642 147.359589,31.9403766 146.781568,31.9403766 C146.10945,31.9403766 145.590575,31.1553072 145.590575,30.108548 C145.590575,29.118678 146.147089,28.3933421 146.91868,28.3933421 C147.359589,28.3933421 147.878464,28.6834765 148.590908,29.3803678 Z M153,31.3003744 L151.534784,31.3003744 L151.534784,25.6598216 C151.534784,21.9961646 150.247006,20.3947368 147.265493,20.3947368 C144.974916,20.3947368 143.590353,21.410207 142.856401,23.6516369 L145.206124,24.2603501 C145.724999,23.5065698 146.184727,23.1851464 146.859533,23.1851464 C147.899972,23.1851464 148.590908,24.1750165 148.590908,25.6000881 L148.590908,26.3538685 C147.862333,25.9784005 147.359589,25.7451553 146.53154,25.7451553 C144.359256,25.7451553 142.802632,27.6964509 142.802632,30.3702378 C142.802632,32.8420686 144.224832,34.6710526 146.12827,34.6710526 C147.012776,34.6710526 147.74404,34.2955847 148.590908,33.3938927 L148.590908,34.4690964 L153,34.4690964 L153,31.3003744 Z" id="Fill-8" fill="#000000"></path>
                    <polyline id="Fill-17" fill="#D63330" points="16.9985453 0 33.9912281 0 33.9912281 16.995614 50.9868421 16.995614 50.9868421 33.9912281 33.9912281 33.9912281 33.9912281 50.9868421 16.9985453 50.9868421 16.9985453 33.9912281 0 33.9912281 0 16.995614 16.9985453 16.995614 16.9985453 0"></polyline>
                </g>
            </g>
        </g>
    </g>
</svg>