<?xml version="1.0" encoding="UTF-8"?>
<svg width="40" height="60" enable-background="new 0 0 18121.891 17875.275" viewBox="0 0 18121.891 17875.275" xmlns="http://www.w3.org/2000/svg">
 <defs>
  <linearGradient id="f" x1="8946.2" x2="8874.9" y1="8872.7" y2="8817.4" gradientTransform="matrix(1,8e-4,-8e-4,1,7.1357,-7.2051)" gradientUnits="userSpaceOnUse">
   <stop stop-color="#fff" offset="0"/>
   <stop offset="1"/>
  </linearGradient>
  <linearGradient id="d" x1="8945.7" x2="8914.4" y1="8849.4" y2="8818.2" gradientUnits="userSpaceOnUse">
   <stop stop-color="#c6c7c8" offset=".0036"/>
   <stop stop-color="#e6e6e6" offset=".9964"/>
  </linearGradient>
  <linearGradient id="c" x1="8944.6" x2="8915.5" y1="8848.3" y2="8819.2" gradientUnits="userSpaceOnUse">
   <stop stop-color="#e3e4e4" offset="0"/>
   <stop stop-color="#fff" offset="1"/>
  </linearGradient>
  <linearGradient id="b" x2="0" y1="8821.4" y2="8813" gradientUnits="userSpaceOnUse">
   <stop stop-color="#626365" offset=".0056"/>
   <stop stop-color="#e9e9ea" offset=".6629"/>
   <stop stop-color="#cfd0d1" offset="1"/>
  </linearGradient>
  <linearGradient id="a" x2="0" y1="8818.3" y2="8818.6" gradientUnits="userSpaceOnUse">
   <stop stop-color="#b5b6b8" offset=".0056"/>
   <stop stop-color="#8c8d8f" offset=".4382"/>
   <stop stop-color="#a5a6a8" offset="1"/>
  </linearGradient>
  <radialGradient id="e" cx="8916.7" cy="8796.3" r="36.208" gradientTransform="matrix(1,8e-4,-8e-4,1,7.1357,-7.2051)" gradientUnits="userSpaceOnUse">
   <stop stop-color="#fff" offset="0"/>
   <stop offset="1"/>
  </radialGradient>
 </defs>
 <g transform="matrix(220.01 0 0 227.91 -1.9514e6 -1.9994e6)">
  <path d="m8910.3 8808.4c-15.622-0.012-28.582 23.016-30.888 53.082l61.691 0.049c-2.258-30.071-15.179-53.12-30.803-53.131z" fill="url(#f)"/>
  <path d="m8926.7 8790.1a17.366 17.366 0 1 0 -34.732 0 17.366 17.366 0 1 0 34.732 0" fill="url(#e)"/>
  <path d="m8927.313,8814.908h-.99c-1.217,0-2.32.672-2.944,1.705h-7.63c-.695,0-1.26.565-1.26,1.261v31.802c0,.693.564,1.256 1.26,1.256h28.643c.695,0 1.26-.563 1.26-1.256v-31.802c0-.695-.564-1.261-1.26-1.261h-7.631c-.623-1.033-1.725-1.705-2.945-1.705h-.821c-.269-1.354-1.413-2.399-2.841-2.399s-2.574,1.046-2.841,2.399zm-11.75,34.768v-31.802c0-.103.082-.187.186-.187h8.257l.145-.312c.392-.847 1.245-1.394 2.173-1.394h1.949l.004-.533c.007-1.029.848-1.867 1.877-1.867s1.871.838 1.879,1.867l.002.533h1.781c.93,0 1.782.547 2.175,1.394l.145.312h8.257c.103,0 .187.084.187.187v31.802c0,.101-.084.183-.187.183h-28.643c-.105-.001-.187-.083-.187-.183z" fill="#87898a"/>
  <path d="m8928.039,8815.495c0,1.183.963,2.147 2.146,2.147 1.186,0 2.148-.965 2.148-2.147 0-1.185-.963-2.147-2.148-2.147-1.183,0-2.146.963-2.146,2.147zm1.072,0c0-.593.483-1.073 1.074-1.073s1.074.48 1.074,1.073-.482,1.073-1.074,1.073-1.074-.481-1.074-1.073z" fill="#87898a"/>
  <path d="m8945.114,8849.676c0,.396-.324.719-.724.719h-28.643c-.401,0-.723-.322-.723-.719v-31.802c0-.399.321-.724.723-.724h28.643c.399,0 .724.324.724.724v31.802z" fill="url(#d)"/>
  <path d="m8944.041,8848.602c0,.396-.324.72-.725.72h-26.495c-.4,0-.723-.323-.723-.72v-29.654c0-.398.322-.723.723-.723h26.495c.4,0 .725.324.725.723v29.654z" fill="url(#c)"/>
  <path d="m8937.5 8843h-3.723v3.918h3.953v-3.918h-0.23zm-0.232 0.463v2.994h-3.027v-2.994h3.027z" fill="#bcbdbe"/>
  <path d="m8939.9 8839.1-3.48 7.183-2.535-4.181 1.06-8e-3 1.436 2.4 2.614-5.389 0.905-5e-3z" fill="#3e3e40"/>
  <path d="m8937.5 8834.2h-3.723v3.917h3.953v-3.917h-0.23zm-0.232 0.463v2.99h-3.027v-2.99h3.027z" fill="#bcbdbe"/>
  <path d="m8939.9 8830.3-3.48 7.184-2.535-4.18 1.06-0.01 1.436 2.401 2.614-5.389 0.905-6e-3z" fill="#3e3e40"/>
  <path d="m8937.5 8825.3h-3.723v3.92h3.953v-3.92h-0.23zm-0.232 0.464v2.993h-3.027v-2.993h3.027z" fill="#bcbdbe"/>
  <path d="m8939.9 8821.4-3.48 7.184-2.535-4.18 1.06-9e-3 1.436 2.4 2.614-5.389 0.905-6e-3z" fill="#3e3e40"/>
  <path d="m8936.75,8818.383v2.982h-13.361v-2.982c0-1.621 1.314-2.938 2.934-2.938h1.416c.009-1.326 1.086-2.4 2.414-2.4s2.406,1.074 2.414,2.4h1.248c1.621,0 2.935,1.317 2.935,2.938zm-6.564-4.498c-.889,0-1.61.721-1.61,1.61s.722,1.61 1.61,1.61 1.611-.721 1.611-1.61-.722-1.61-1.611-1.61z" fill="url(#b)"/>
  <path d="m8935.936,8818.647h-11.763l.206-.386h11.3l.257.386z" fill="url(#a)"/>
 </g>
</svg>
